Coordinates
nRows=122
nColumns=2
inDegrees=yes
endheader
time	ankle_angle_r	
3	  9.300595	
3.0625	  9.349823	
3.125	  9.284610	
3.1875	  9.285700	
3.25	  9.357997	
3.3125	  9.390331	
3.375	  9.364174	
3.4375	  9.348733	
3.5	  9.297688	
3.5625	  9.358360	
3.625	  9.348188	
3.6875	  9.302230	
3.75	  9.323120	
3.8125	  9.329115	
3.875	  9.362720	
3.9375	  9.405772	
4	  9.307861	
4.0625	  9.323120	
4.125	  9.323120	
4.1875	  9.330205	
4.25	  9.359450	
4.3125	  9.353638	
4.375	  9.307861	
4.4375	  9.376345	
4.5	  9.368896	
4.5625	  9.284429	
4.625	  9.331476	
4.6875	  9.323120	
4.75	  9.340559	
4.8125	  9.375255	
4.875	  9.380885	
4.9375	  9.353638	
5	  9.317307	
5.0625	  9.344010	
5.125	  9.359087	
5.1875	  9.323665	
5.25	  9.333293	
5.3125	  9.404319	
5.375	  9.384155	
5.4375	  9.390331	
5.5	  9.410314	
5.5625	  9.338379	
5.625	  9.349642	
5.6875	  9.365082	
5.75	  9.338379	
5.8125	  9.379251	
5.875	  9.360177	
5.9375	  9.353638	
6	  9.396507	
6.0625	  9.350913	
6.125	  9.351094	
6.1875	  9.381794	
6.25	  9.320940	
6.3125	  9.380159	
6.375	  9.368896	
6.4375	  9.340014	
6.5	  9.353638	
6.5625	  9.325664	
6.625	  9.337289	
6.6875	  9.352730	
6.75	  9.339106	
6.8125	  9.382521	
6.875	  9.384519	
6.9375	  9.368715	
7	  9.414673	
7.0625	  9.398687	
7.125	  9.308588	
7.1875	  9.369441	
7.25	  9.310041	
7.3125	  9.339287	
7.375	  9.413583	
7.4375	  9.353638	
7.5	  9.384155	
7.5625	  9.413038	
7.625	  9.355454	
7.6875	  9.412675	
7.75	  9.340559	
7.8125	  9.368896	
7.875	  9.412129	
7.9375	  9.399414	
8	  9.399414	
8.0625	  9.399414	
8.125	  9.311131	
8.1875	  9.348733	
8.25	  9.376163	
8.3125	  9.334564	
8.375	  9.399414	
8.4375	  9.361994	
8.5	  9.362357	
8.5625	  9.408497	
8.625	  9.298415	
8.6875	  9.313311	
8.75	  9.379069	
8.8125	  9.338379	
8.875	  9.338379	
8.9375	  9.368896	
9	  9.351458	
9.0625	  9.384155	
9.125	  9.384155	
9.1875	  9.338379	
9.25	  9.360177	
9.3125	  9.321303	
9.375	  9.338379	
9.4375	  9.392329	
9.5	  9.361630	
9.5625	  9.399414	
9.625	  9.399414	
9.6875	  9.323120	
9.75	  9.354364	
9.8125	  9.329115	
9.875	  9.346735	
9.9375	  9.397597	
10	  9.375436	
10.0625	  9.356181	
10.125	  9.390331	
10.1875	  9.317125	
10.25	  9.332566	
10.3125	  9.307861	
10.375	  9.221758	
10.4375	  9.277344	
10.5	  9.282430	
10.5625	  9.272439	
